<?xml version="1.0" encoding="iso-8859-1"?>
<!-- Generator: Adobe Illustrator 16.0.0, SVG Export Plug-In . SVG Version: 6.00 Build 0)  -->
<!DOCTYPE svg PUBLIC "-//W3C//DTD SVG 1.1//EN" "http://www.w3.org/Graphics/SVG/1.1/DTD/svg11.dtd">
<svg version="1.1" id="Layer_1" xmlns="http://www.w3.org/2000/svg" xmlns:xlink="http://www.w3.org/1999/xlink" x="0px" y="0px"
	 width="612px" height="612px" viewBox="0 0 612 612" style="enable-background:new 0 0 612 612;" xml:space="preserve">
<path style="fill:#191918;" d="M612,225.793v-11.91h-39.597V197.55c10.372-7.297,17.169-19.35,17.169-32.967
	c0-22.217-18.075-40.292-40.293-40.292c-22.217,0-40.292,18.075-40.292,40.292c0,13.617,6.797,25.67,17.169,32.967v16.337H85.845
	V197.55c10.372-7.297,17.169-19.35,17.169-32.967c0-22.217-18.075-40.292-40.294-40.292c-22.217,0-40.292,18.075-40.292,40.292
	c0,13.617,6.796,25.67,17.169,32.967v16.333H0v11.91h39.597V475.8H0v11.91l526.156-0.005v0.005h27.912h18.335H612V475.8h-39.597
	V225.793H612z M114.444,225.797h51.632c-1.133,16.548-6.938,31.825-16.113,44.526h-3.634v-15.07h7.535v-11.91h-39.42V225.797z
	 M117.25,282.233v15.525c-9.618,4.632-20.226,7.51-31.405,8.276v-50.781h48.574v15.07H96.226v11.91H117.25z M129.16,282.233h10.429
	c-3.248,3.109-6.73,5.968-10.429,8.545V282.233z M102.534,225.797v17.546H85.845v-17.546H102.534z M73.932,475.8H51.506V203.277
	c3.563,1.035,7.322,1.6,11.214,1.6s7.651-0.565,11.215-1.6L73.932,475.8z M62.72,192.966c-15.651,0-28.383-12.733-28.383-28.383
	S47.071,136.2,62.72,136.2c15.651,0,28.384,12.733,28.384,28.383S78.371,192.966,62.72,192.966z M180.889,475.796h-37.053v-16.629
	h37.053V475.796z M193.417,475.796h-0.618v-16.629h0.618c4.584,0,8.314,3.729,8.314,8.314
	C201.731,472.066,198.001,475.796,193.417,475.796z M526.156,475.796H211.833c0.347-0.766,0.662-1.549,0.912-2.359h4.536
	c3.289,0,5.955-2.667,5.955-5.955c0-3.289-2.667-5.955-5.955-5.955h-4.536c-2.549-8.254-10.248-14.27-19.327-14.27h-61.491v28.539
	H85.845V317.975c49.48-2.975,89.2-42.695,92.172-92.177h348.139V475.796z M560.492,475.8h-6.425h-15.999l-0.004-272.523
	c3.563,1.035,7.322,1.6,11.214,1.6s7.651-0.565,11.214-1.6V475.8z M549.279,192.966c-15.649,0-28.382-12.733-28.382-28.383
	s12.731-28.383,28.382-28.383c15.651,0,28.383,12.733,28.383,28.383S564.93,192.966,549.279,192.966z M225.449,366.654l4.14,17.271
	l4.139,17.271l17.271-4.14l-4.14-17.271l-4.139-17.271l17.263-4.137l4.139,17.271l4.14,17.271l17.271-4.14l-4.139-17.271
	l17.271-4.14l17.271-4.139l17.271-4.14l17.271-4.14l17.271-4.139l4.139,17.268l-17.27,4.14l-16.852,4.139c0,0,0,22.315,0,33.649
	v28.29c0,3.11,2.273,5.888,5.37,6.183c3.552,0.339,6.54-2.445,6.54-5.927v-25.843c1.252,1.434,3.154,2.283,5.268,2.005
	c3.002-0.397,5.156-3.117,5.156-6.144l0.162-20.265l15.763-2.965l-4.136-17.26l17.262-4.137l-4.14-17.271l-4.139-17.271l17.271-4.14
	l4.14,17.271l4.139,17.271l17.271-4.139l-4.139-17.271l-4.14-17.271l-4.14-17.271l-17.271,4.14l-4.14-17.271l-17.271,4.139
	l-4.14-17.271l-17.263,4.137l-4.133-17.247l17.259-4.135l-4.136-17.264l-17.263,4.136l4.13,17.24l-17.267,4.139l4.139,17.271
	l-17.271,4.139l-17.271,4.14l-17.271,4.139l-4.139-17.271l-17.247,4.133l-4.134-17.254l-17.271,4.138l4.136,17.263l17.247-4.132
	l4.137,17.262l-17.271,4.139l4.139,17.271l-17.263,4.137l4.139,17.271l-17.271,4.14L225.449,366.654z M355.329,299l4.14,17.271
	l-17.271,4.14l-4.14-17.271L355.329,299z M286.248,315.555l4.139,17.271l-17.271,4.14l-4.139-17.271L286.248,315.555z
	 M320.073,380.499l4.137,17.263l-17.271,4.139l-17.269,4.139l-4.138-17.263l17.271-4.14L320.073,380.499z"/>
<g>
</g>
<g>
</g>
<g>
</g>
<g>
</g>
<g>
</g>
<g>
</g>
<g>
</g>
<g>
</g>
<g>
</g>
<g>
</g>
<g>
</g>
<g>
</g>
<g>
</g>
<g>
</g>
<g>
</g>
</svg>
