<?xml version="1.0" encoding="iso-8859-1"?>
<!-- Generator: Adobe Illustrator 19.0.0, SVG Export Plug-In . SVG Version: 6.00 Build 0)  -->
<svg version="1.1" id="Layer_1" xmlns="http://www.w3.org/2000/svg" xmlns:xlink="http://www.w3.org/1999/xlink" x="0px" y="0px"
	 viewBox="0 0 512 512" style="enable-background:new 0 0 512 512;" xml:space="preserve">
<path style="fill:#87BDF4;" d="M512,256c0,141.241-114.759,256-256,256S0,397.241,0,256S114.759,0,256,0S512,114.759,512,256"/>
<g>
	<path style="fill:#0D9343;" d="M247.172,105.931c-24.717,0-44.138-19.421-44.138-44.138c0-5.297,3.531-8.828,8.828-8.828
		s8.828,3.531,8.828,8.828c0,15.007,11.476,26.483,26.483,26.483c5.297,0,8.828,3.531,8.828,8.828S252.469,105.931,247.172,105.931"
		/>
	<path style="fill:#0D9343;" d="M273.655,105.931c-5.297,0-8.828-3.531-8.828-8.828s3.531-8.828,8.828-8.828
		c15.007,0,26.483-11.476,26.483-26.483c0-5.297,3.531-8.828,8.828-8.828s8.828,3.531,8.828,8.828
		C317.793,86.51,298.372,105.931,273.655,105.931"/>
	<path style="fill:#0D9343;" d="M247.172,105.931c-5.297,0-8.828-3.531-8.828-8.828v-35.31c0-5.297,3.531-8.828,8.828-8.828
		S256,56.497,256,61.793v35.31C256,102.4,252.469,105.931,247.172,105.931"/>
	<path style="fill:#0D9343;" d="M273.655,105.931c-5.297,0-8.828-3.531-8.828-8.828v-35.31c0-5.297,3.531-8.828,8.828-8.828
		s8.828,3.531,8.828,8.828v35.31C282.483,102.4,278.952,105.931,273.655,105.931"/>
</g>
<g>
	<polygon style="fill:#D8A887;" points="194.207,150.069 326.621,150.069 326.621,97.103 194.207,97.103 	"/>
	<path style="fill:#D8A887;" d="M495.228,238.345v-19.421c0-4.414,0.883-8.828,3.531-12.359l6.179-9.71
		c-0.883-3.531-1.766-7.945-2.648-11.476H9.71c-0.883,3.531-1.766,7.062-2.648,11.476l6.179,9.71
		c2.648,3.531,4.414,7.945,4.414,11.476v20.303c0,0,0,0,0,17.655h476.69C494.345,238.345,495.228,238.345,495.228,238.345"/>
</g>
<g>
	<path style="fill:#F8BC94;" d="M220.69,509.352C232.166,511.117,243.641,512,256,512c15.007,0,30.014-1.766,44.138-3.531V256
		H220.69V509.352z"/>
	<path style="fill:#F8BC94;" d="M344.276,496.11c15.89-5.297,30.014-13.241,44.138-21.186V256h-44.138V496.11z"/>
	<path style="fill:#F8BC94;" d="M432.552,441.379c16.772-16.772,31.779-35.31,44.138-55.614V256h-44.138V441.379z"/>
	<path style="fill:#F8BC94;" d="M132.414,480.221c14.124,7.945,29.131,14.124,44.138,19.421V256h-44.138V480.221z"/>
	<path style="fill:#F8BC94;" d="M44.138,399.89c12.359,18.538,27.366,35.31,44.138,49.434V256H44.138V399.89z"/>
	<path style="fill:#F8BC94;" d="M61.793,238.345c-5.297,0-8.828-3.531-8.828-8.828v-17.655c0-5.297,3.531-8.828,8.828-8.828
		s8.828,3.531,8.828,8.828v17.655C70.621,234.814,67.09,238.345,61.793,238.345"/>
	<path style="fill:#F8BC94;" d="M97.103,238.345c-5.297,0-8.828-3.531-8.828-8.828v-17.655c0-5.297,3.531-8.828,8.828-8.828
		s8.828,3.531,8.828,8.828v17.655C105.931,234.814,102.4,238.345,97.103,238.345"/>
	<path style="fill:#F8BC94;" d="M132.414,238.345c-5.297,0-8.828-3.531-8.828-8.828v-17.655c0-5.297,3.531-8.828,8.828-8.828
		c5.297,0,8.828,3.531,8.828,8.828v17.655C141.241,234.814,137.71,238.345,132.414,238.345"/>
	<path style="fill:#F8BC94;" d="M167.724,238.345c-5.297,0-8.828-3.531-8.828-8.828v-17.655c0-5.297,3.531-8.828,8.828-8.828
		s8.828,3.531,8.828,8.828v17.655C176.552,234.814,173.021,238.345,167.724,238.345"/>
	<path style="fill:#F8BC94;" d="M203.034,238.345c-5.297,0-8.828-3.531-8.828-8.828v-17.655c0-5.297,3.531-8.828,8.828-8.828
		s8.828,3.531,8.828,8.828v17.655C211.862,234.814,208.331,238.345,203.034,238.345"/>
	<path style="fill:#F8BC94;" d="M238.345,238.345c-5.297,0-8.828-3.531-8.828-8.828v-17.655c0-5.297,3.531-8.828,8.828-8.828
		s8.828,3.531,8.828,8.828v17.655C247.172,234.814,243.641,238.345,238.345,238.345"/>
	<path style="fill:#F8BC94;" d="M273.655,238.345c-5.297,0-8.828-3.531-8.828-8.828v-17.655c0-5.297,3.531-8.828,8.828-8.828
		s8.828,3.531,8.828,8.828v17.655C282.483,234.814,278.952,238.345,273.655,238.345"/>
	<path style="fill:#F8BC94;" d="M308.966,238.345c-5.297,0-8.828-3.531-8.828-8.828v-17.655c0-5.297,3.531-8.828,8.828-8.828
		s8.828,3.531,8.828,8.828v17.655C317.793,234.814,314.262,238.345,308.966,238.345"/>
	<path style="fill:#F8BC94;" d="M344.276,238.345c-5.297,0-8.828-3.531-8.828-8.828v-17.655c0-5.297,3.531-8.828,8.828-8.828
		s8.828,3.531,8.828,8.828v17.655C353.103,234.814,349.572,238.345,344.276,238.345"/>
	<path style="fill:#F8BC94;" d="M379.586,238.345c-5.297,0-8.828-3.531-8.828-8.828v-17.655c0-5.297,3.531-8.828,8.828-8.828
		s8.828,3.531,8.828,8.828v17.655C388.414,234.814,384.883,238.345,379.586,238.345"/>
	<path style="fill:#F8BC94;" d="M414.897,238.345c-5.297,0-8.828-3.531-8.828-8.828v-17.655c0-5.297,3.531-8.828,8.828-8.828
		s8.828,3.531,8.828,8.828v17.655C423.724,234.814,420.193,238.345,414.897,238.345"/>
	<path style="fill:#F8BC94;" d="M450.207,238.345c-5.297,0-8.828-3.531-8.828-8.828v-17.655c0-5.297,3.531-8.828,8.828-8.828
		s8.828,3.531,8.828,8.828v17.655C459.034,234.814,455.503,238.345,450.207,238.345"/>
</g>
<polygon style="fill:#AA7D5E;" points="485.517,273.655 26.483,273.655 17.655,256 494.345,256 "/>
<polygon style="fill:#F8BC94;" points="326.621,141.241 194.207,141.241 61.793,141.241 61.793,185.379 459.034,185.379 
	459.034,141.241 "/>
<g>
</g>
<g>
</g>
<g>
</g>
<g>
</g>
<g>
</g>
<g>
</g>
<g>
</g>
<g>
</g>
<g>
</g>
<g>
</g>
<g>
</g>
<g>
</g>
<g>
</g>
<g>
</g>
<g>
</g>
</svg>
