<?xml version="1.0" encoding="iso-8859-1"?>
<!-- Generator: Adobe Illustrator 19.0.0, SVG Export Plug-In . SVG Version: 6.00 Build 0)  -->
<svg version="1.1" id="Layer_1" xmlns="http://www.w3.org/2000/svg" xmlns:xlink="http://www.w3.org/1999/xlink" x="0px" y="0px"
	 viewBox="0 0 330 330" style="enable-background:new 0 0 330 330;" xml:space="preserve">
<path id="XMLID_7_" d="M285,240h-35.252c10.525-8.475,19.838-18.55,27.508-30h11.687c8.284,0,15-6.716,15-15s-6.716-15-15-15h-20
	H180v-45c0-8.271,6.729-15,15-15s15,6.729,15,15c0,8.284,6.716,15,15,15s15-6.716,15-15c0-24.813-20.186-45-45-45
	c-5.259,0-10.305,0.915-15,2.58V75c0-24.813,20.186-45,45-45s45,20.187,45,45c0,8.284,6.716,15,15,15s15-6.716,15-15
	c0-41.355-33.645-75-75-75c-24.508,0-46.306,11.817-60,30.052C151.306,11.817,129.508,0,105,0C63.645,0,30,33.645,30,75
	c0,8.284,6.716,15,15,15s15-6.716,15-15c0-24.813,20.187-45,45-45s45,20.187,45,45v17.58c-4.695-1.665-9.741-2.58-15-2.58
	c-24.813,0-45,20.187-45,45c0,8.284,6.716,15,15,15s15-6.716,15-15c0-8.271,6.729-15,15-15s15,6.729,15,15v45H61.058h-20
	c-8.284,0-15,6.716-15,15s6.716,15,15,15h11.687c7.67,11.45,16.983,21.525,27.508,30H45c-8.284,0-15,6.716-15,15v60
	c0,8.284,6.716,15,15,15h240c8.284,0,15-6.716,15-15v-60C300,246.716,293.284,240,285,240z M91.556,210h146.889
	c-19.399,18.932-45.731,30-73.444,30S110.955,228.932,91.556,210z M270,300H60v-30h210V300z"/>
<g>
</g>
<g>
</g>
<g>
</g>
<g>
</g>
<g>
</g>
<g>
</g>
<g>
</g>
<g>
</g>
<g>
</g>
<g>
</g>
<g>
</g>
<g>
</g>
<g>
</g>
<g>
</g>
<g>
</g>
</svg>
