<svg width="38" height="33" viewBox="0 0 38 33" fill="none" xmlns="http://www.w3.org/2000/svg">
<path d="M19.0007 10.7251C14.1443 10.7251 10.1938 14.5079 10.1938 19.1573C10.1938 23.8066 14.1447 27.5894 19.0007 27.5894C23.8566 27.5894 27.8075 23.8066 27.8075 19.1573C27.8075 14.5079 23.8566 10.7251 19.0007 10.7251ZM19.0007 24.8718C15.7096 24.8718 13.0322 22.3082 13.0322 19.1573C13.0322 16.0064 15.7098 13.4427 19.0007 13.4427C22.2916 13.4427 24.9691 16.0064 24.9691 19.1573C24.9691 22.308 22.2918 24.8718 19.0007 24.8718Z" fill="white"/>
<path d="M33.524 6.1747H19.7103H19.0007V3.11579C19.0007 1.39786 17.5413 0 15.747 0H8.45211C6.65785 0 5.19845 1.39768 5.19845 3.11579V6.17488H4.47696C2.00859 6.1747 0 8.09747 0 10.4608V28.1037C0 30.4667 2.00859 32.389 4.47696 32.389H33.5234C35.9924 32.389 38 30.4667 38 28.1037V10.4608C38.0006 8.09747 35.9924 6.1747 33.524 6.1747ZM8.03625 3.11579C8.03625 2.89613 8.22269 2.71781 8.45211 2.71781H15.747C15.976 2.71781 16.1623 2.89632 16.1623 3.11597V6.17506H8.03625V3.11579ZM33.524 29.6713H4.47696C3.57343 29.6713 2.83838 28.9679 2.83838 28.1037V10.4608C2.83838 9.59574 3.57343 8.89233 4.47696 8.89233H5.51822H8.03625H16.1619H19.7097H33.5234C34.427 8.89233 35.1616 9.59574 35.1616 10.4608V28.1037H35.1622C35.1622 28.9679 34.4275 29.6713 33.524 29.6713Z" fill="white"/>
<path d="M33.4289 11.1376H29.8016V13.8552H33.4289V11.1376Z" fill="white"/>
</svg>
