<svg width="64" height="64" viewBox="0 0 64 64" fill="none" xmlns="http://www.w3.org/2000/svg">
<rect width="64" height="64" rx="32" fill="url(#paint0_linear_11_87)"/>
<path d="M32.0007 26.7251C27.1443 26.7251 23.1938 30.5079 23.1938 35.1573C23.1938 39.8066 27.1447 43.5894 32.0007 43.5894C36.8566 43.5894 40.8075 39.8066 40.8075 35.1573C40.8075 30.5079 36.8566 26.7251 32.0007 26.7251ZM32.0007 40.8718C28.7096 40.8718 26.0322 38.3082 26.0322 35.1573C26.0322 32.0064 28.7098 29.4427 32.0007 29.4427C35.2916 29.4427 37.9691 32.0064 37.9691 35.1573C37.9691 38.308 35.2918 40.8718 32.0007 40.8718Z" fill="white"/>
<path d="M46.524 22.1747H32.7103H32.0007V19.1158C32.0007 17.3979 30.5413 16 28.747 16H21.4521C19.6578 16 18.1984 17.3977 18.1984 19.1158V22.1749H17.477C15.0086 22.1747 13 24.0975 13 26.4608V44.1037C13 46.4667 15.0086 48.389 17.477 48.389H46.5234C48.9924 48.389 51 46.4667 51 44.1037V26.4608C51.0006 24.0975 48.9924 22.1747 46.524 22.1747ZM21.0363 19.1158C21.0363 18.8961 21.2227 18.7178 21.4521 18.7178H28.747C28.976 18.7178 29.1623 18.8963 29.1623 19.116V22.1751H21.0363V19.1158ZM46.524 45.6713H17.477C16.5734 45.6713 15.8384 44.9679 15.8384 44.1037V26.4608C15.8384 25.5957 16.5734 24.8923 17.477 24.8923H18.5182H21.0363H29.1619H32.7097H46.5234C47.427 24.8923 48.1616 25.5957 48.1616 26.4608V44.1037H48.1622C48.1622 44.9679 47.4275 45.6713 46.524 45.6713Z" fill="white"/>
<path d="M46.4289 27.1376H42.8016V29.8552H46.4289V27.1376Z" fill="white"/>
<defs>
<linearGradient id="paint0_linear_11_87" x1="8.88891" y1="-3.55557" x2="51.5556" y2="64" gradientUnits="userSpaceOnUse">
<stop stop-color="#FFAC5F"/>
<stop offset="1" stop-color="#FF4D3C"/>
</linearGradient>
</defs>
</svg>
