<svg width="26" height="26" viewBox="0 0 26 26" fill="none" xmlns="http://www.w3.org/2000/svg">
<path d="M13.2542 15.9218L8.16926 18.2559C7.75246 18.4226 7.41903 18.0058 7.58574 17.6723L9.91982 12.5874C10.5033 11.4204 11.4203 10.42 12.5873 9.91987L17.7557 7.50243C18.1725 7.33571 18.5059 7.75251 18.3392 8.08595L16.0051 13.1709C15.4216 14.4213 14.4213 15.3383 13.2542 15.9218Z" fill="url(#paint0_linear_11_82)"/>
<path d="M12.9208 3.3344C18.1725 3.3344 22.5072 7.58575 22.5072 12.9208C22.5072 18.1725 18.2558 22.5072 12.9208 22.5072C7.58575 22.5072 3.3344 18.2558 3.3344 12.9208C3.3344 7.58575 7.66911 3.3344 12.9208 3.3344ZM12.9208 0C5.8352 0 0 5.75184 0 12.9208C0 20.0897 5.75184 25.8416 12.9208 25.8416C20.0064 25.8416 25.8416 20.0897 25.8416 12.9208C25.8416 5.75184 20.0064 0 12.9208 0Z" fill="url(#paint1_linear_11_82)"/>
<defs>
<linearGradient id="paint0_linear_11_82" x1="19.7611" y1="12.9813" x2="5.24505" y2="12.9813" gradientUnits="userSpaceOnUse">
<stop stop-color="#FD814A"/>
<stop offset="1" stop-color="#FC5C4C"/>
</linearGradient>
<linearGradient id="paint1_linear_11_82" x1="29.1265" y1="13.1646" x2="-5.47491" y2="13.1646" gradientUnits="userSpaceOnUse">
<stop stop-color="#FD814A"/>
<stop offset="1" stop-color="#FC5C4C"/>
</linearGradient>
</defs>
</svg>
