<svg width="28" height="28" viewBox="0 0 28 28" fill="none" xmlns="http://www.w3.org/2000/svg">
<path d="M23.7814 19.153C22.2986 19.153 20.9968 19.9569 20.2447 21.1701L8.2515 15.2993C8.37171 14.8883 8.43718 14.4523 8.43718 14.0001C8.43718 13.5679 8.37527 13.1515 8.26513 12.7568L20.2515 6.84186C21.0049 8.04855 22.3034 8.84721 23.7814 8.84721C26.1113 8.84721 28 6.86671 28 4.42358C28 1.98044 26.1113 0 23.7814 0C21.4515 0 19.5629 1.9805 19.5629 4.42358C19.5629 4.88056 19.6291 5.32126 19.7518 5.73594L7.78335 11.6419C7.03592 10.4023 5.72068 9.57661 4.21859 9.57661C1.88873 9.57648 0 11.5569 0 14.0001C0 16.4431 1.88873 18.4235 4.21853 18.4235C5.70137 18.4235 7.0031 17.6196 7.75527 16.4064L19.7485 22.2774C19.6283 22.6882 19.5628 23.1242 19.5628 23.5765C19.5628 26.0196 21.4515 28 23.7814 28C26.1113 28 27.9999 26.0195 27.9999 23.5765C28 21.1335 26.1113 19.153 23.7814 19.153Z" fill="white"/>
</svg>
